<svg width="1254" height="1254" viewBox="0 0 1254 1254" fill="none" xmlns="http://www.w3.org/2000/svg"><rect width="1254" height="1254" fill="#D7D7D7"/><path d="M366.9 874.5C357.3 879.9 351.4 882.7 340.3 883.7C323.2 885.3 303.5 877 290.9 865.1C248.2 825 222.2 752.6 217.6 695.2C216.2 677.1 218.6 652.1 231.8 639.1C235.8 635.1 241.7 632.2 245.1 628.3C245.8 626.2 245.9 627 245.4 625C234.7 625.4 226.4 618.8 222.9 608.9C217 592.2 214.6 573.4 211.9 555.9C206.7 522.2 202.7 488.4 199.9 454.4C198.6 437.6 197.2 414.5 198.9 397.8C201.5 371.7 210.3 344 220.5 319.9C232.8 290.9 249.6 262.8 267.4 236.8C283.5 213.2 308.8 180.3 330.9 161.8C372.3 127.1 431.7 101.1 481.6 80.5C504.7 70.9 536.8 60.1 561.3 56C578.8 53.1 608.5 54.7 626.3 56.2C665.4 59.7 715.5 64.5 751.8 80.8C815.2 109.2 862 177.7 886.6 240.2C916.8 238.8 945.9 238.9 976.2 244.3C1028.2 253.7 1099.9 287.3 1089.3 351.2C1085.7 373.4 1062 394.5 1044.2 406.1C1021.7 420.9 969.7 447 943.2 441.7C950 452.4 964.9 474.9 963.5 489.3C963.4 490.6 960.4 492.2 959.2 492.8L958.6 493.1C964.7 510.1 969.4 513.9 969.7 534C990.7 532.4 998 550.1 1005.4 566.1C1024.3 606.5 1042.2 756.4 991.4 776.7C991.4 786.6 992.4 792.2 993.6 802C994.1 806.2 993.1 813.3 993.4 818.7C993.7 826.3 994.9 836 994.5 843.5C994.4 844.9 992.3 846.1 991 846.8L990.4 847.4C990.5 849.7 990.7 852 990.2 854.2C992.5 866.9 994.3 879.9 986 891.1C985.8 897.6 985 909.5 980.8 915.1C980.4 915.7 978.1 917.1 977.3 917.5C976.8 919.1 976.4 923.9 976.4 925.8C976.5 933.1 973.2 944.5 968.7 950.3C967.5 950.9 966.3 951.4 965.1 952C963.6 956.4 963.6 960 962.4 963.8C958.7 975.3 951.6 989 943.8 998.3L939 999.6C935.2 1010.8 926.5 1030.5 916 1036.2C910.3 1047.8 902.2 1064 890 1071.7C889 1072.4 884.4 1072.3 883.3 1073.3C879.8 1076.5 877.5 1081 874.5 1084.5C867.7 1092.4 859 1098.8 849.8 1103.5C843 1107.2 836.7 1108.5 829.3 1110C826.2 1110.6 816.5 1116.8 813.6 1116.9C800.8 1117.2 793.7 1125 782.2 1128.2C772.7 1130.8 763.1 1131.4 753.5 1132.4C751.4 1132.6 743.7 1135.4 741.7 1136.2C727.4 1142.1 715 1138.2 700.7 1136C696 1135.2 698.8 1141 692.5 1140.9C681.5 1140.6 671.5 1133.5 660.7 1135.2C657.5 1134.9 651.8 1132.4 649 1131.2C643.7 1128.9 639.7 1130.5 634.1 1129.7C622.2 1127.9 611.8 1121.7 600.8 1118.3C596.5 1117.2 593.9 1115.8 590.2 1113.7C588.8 1114.7 588.5 1114.8 586.9 1115.5C579.4 1115.5 567.3 1105.1 561.1 1101.7C558.7 1100.4 552.3 1099.2 549.4 1098C547.4 1097.2 539.9 1092.2 538.8 1092C530.8 1090.5 534.4 1092.6 527.5 1088.7C520 1084.3 516.3 1077 510.2 1072.8C508.9 1073.4 507.9 1073.8 506.6 1074.2C500.2 1073.7 491.3 1063 485.7 1058.6C480 1060.4 479.8 1059 475.4 1055.8C467.5 1050.2 462.8 1042.8 457.2 1035C446.8 1032.7 437.7 1019.3 435.7 1009.2C434.9 1009.5 433.4 1010 432.8 1010.1C421.5 1013.7 419.6 990.7 415.8 988.4C408.1 983.5 409.1 985.1 403.1 976.2C394.4 963.2 394.1 955 393.6 940L393.3 940C380.6 946.9 383.5 911.2 381.5 905.5C379.2 905.5 378.4 905.7 376.5 904.4C371.5 897.8 368.9 882.8 366.9 874.5Z" fill="white"/><path d="M366.9 874.5C357.3 879.9 351.4 882.7 340.3 883.7C323.2 885.3 303.5 877 290.9 865.1C248.2 825 222.2 752.6 217.6 695.2C216.2 677.1 218.6 652.1 231.8 639.1C235.8 635.1 241.7 632.2 245.1 628.3C245.8 626.2 245.9 627 245.4 625C234.7 625.4 226.4 618.8 222.9 608.9C217 592.2 214.6 573.4 211.9 555.9C206.7 522.2 202.7 488.4 199.9 454.4C198.6 437.6 197.2 414.5 198.9 397.8C201.5 371.7 210.3 344 220.5 319.9C232.8 290.9 249.6 262.8 267.4 236.8C283.5 213.2 308.8 180.3 330.9 161.8C372.3 127.1 431.7 101.1 481.6 80.5C504.7 70.9 536.8 60.1 561.3 56C578.8 53.1 608.5 54.7 626.3 56.2C665.4 59.7 715.5 64.5 751.8 80.8C815.2 109.2 862 177.7 886.6 240.2C916.8 238.8 945.9 238.9 976.2 244.3C1028.2 253.7 1099.9 287.3 1089.3 351.2C1085.7 373.4 1062 394.5 1044.2 406.1C1021.7 420.9 969.7 447 943.2 441.7C950 452.4 964.9 474.9 963.5 489.3C963.4 490.6 960.4 492.2 959.2 492.8L958.6 493.1C964.7 510.1 969.4 513.9 969.7 534C990.7 532.4 998 550.1 1005.4 566.1C1024.3 606.5 1042.2 756.4 991.4 776.7C991.4 786.6 992.4 792.2 993.6 802C994.1 806.2 993.1 813.3 993.4 818.7C993.7 826.3 994.9 836 994.5 843.5C994.4 844.9 992.3 846.1 991 846.8C990.3 846.7 988.6 845.9 988.4 845.1C986.7 837.1 982.7 829.9 980.5 822C980.1 820.5 980.6 819.7 981.5 818.7C983.2 818.6 983.9 819.3 985.3 820.3L985.9 820.7L986.2 820.4C986.7 811.7 984.4 788.3 979.7 781.2C979.1 774.1 981.2 768.1 980.9 760.7C978.2 688.4 961.1 620 941.6 550.8C925.8 493.5 907.5 436.9 886.7 381.3C837.9 350.9 751.8 359.6 698.2 371.5C687.3 373.9 669.5 377.1 659.4 381.7C656.4 383 646.3 391.4 643.1 393.9C632.9 402.1 622.7 410.4 612.6 418.8C590.1 437.5 567.3 456 544.4 474.3C490.4 517 450.4 542.1 379.8 542.5C378.7 562.4 371.2 577.4 362 594.5C362.4 597.6 362.9 600.8 363.3 604C369.7 616.1 368.8 646.8 365.8 660.1C365.1 663 362.1 674.8 362 676.4C362.9 681 363.7 685.6 364.7 690.2L365.9 690.8C371.6 696.7 370.1 722.2 369.5 730.8C370.5 733.8 372.4 743.9 373.5 745L373.8 745.1C372.5 745.7 371.5 745.8 371.2 747.2C369.8 754.7 371.6 763.8 370.7 771.4C369.7 772 369.8 774.7 367.8 777.1C364.6 776.2 357.6 769.8 352.8 767.7C352.2 772.1 350.8 775.4 350.6 779.6C351.7 781.8 351.7 788.2 352.4 791.5C354.7 789.9 354 789.9 356.2 789.9C358.6 791.8 359.2 795 359.4 798C360 809.7 359.1 816.5 362.7 827.9C363.5 825 363.6 823.9 365.4 821.6C367.1 820.7 366.2 820.8 368.2 821.4C370.5 823.8 370.4 823.8 370.3 827.5C370.2 833 368.9 839.5 369.3 845C371.9 845.3 372.4 845 374 846.8C374.9 852.3 373.6 856.9 374.1 861.5C375.2 872.5 377.7 883.2 381 893.7C381.8 890.1 381.9 888.3 385.4 886.7C392.2 888.8 387.5 917.3 390.6 924.3C391.1 925.4 393.3 938.9 393.3 940C380.6 946.9 383.5 911.2 381.5 905.5C379.2 905.5 378.4 905.7 376.5 904.4C371.5 897.8 368.9 882.8 366.9 874.5Z" fill="black"/><path d="M239 612.6C235.6 609.5 233.4 606.2 232 601.8C227 586 224.6 569.2 222.1 552.9C215.2 509.2 209.8 465.1 208.4 420.9C207.8 399.2 211.9 378.8 218 358.1C229.6 318.8 249.3 282.7 272.1 248.8C286.2 227.7 301.1 207.4 318.7 189.1C312.2 206.2 308.1 224 306.4 242.2C300 312.5 326.4 413.5 347.6 481.2C340.3 486.7 333.2 492.3 326 497.9C324.7 493.6 323.6 488.2 320.1 485.4L319.2 485.9C318.2 491.3 320.3 495.9 322.1 501.1C318.5 504.1 314.9 507.1 311.5 510.2C300.4 520.6 244 578.2 245.1 590C245.3 592.1 246.9 593.2 248.5 594.2C244.6 600.8 241.7 605.3 239 612.6Z" fill="#E0E0DF"/><path d="M282.2 299.1C283.2 299.7 284.5 300.3 284.5 301.6C284.9 307 287.4 318.6 285.1 323.3C284.9 323.2 283.8 322.9 283.7 322.7C279.8 318.5 279.5 302.9 282.2 299.1Z" fill="black"/><path d="M307.2 441C312.3 442.6 316.1 459.9 314.4 463.9L312.2 463.1C309.4 459.6 305.3 445.4 307.2 441Z" fill="black"/><path d="M286.4 348.5C287.8 348.7 289.4 349 289.8 350.5C291.1 355 294.2 367.8 292.8 371.9C291.6 371.6 290.5 371.5 289.8 370.4C287.3 365.9 285.7 353.2 286.4 348.5Z" fill="black"/><path d="M296.6 395.8L298.3 396.6C300.8 399.8 304.5 414.7 302.5 418.4C301.3 418.1 301.3 418 300.2 417.4C297.7 413.6 294.3 400 296.6 395.8Z" fill="black"/><path d="M282.9 248C284.2 248.2 284.3 248.4 285.5 248.8C287.1 251.6 284.6 266.6 284.2 271C281.5 270.6 282.5 271.2 280.9 269.7C279.4 264.5 281.3 253.2 282.9 248Z" fill="black"/><path d="M363.4 863.5C335.7 881.7 307.9 869 288 845.9C260.6 814.2 244.1 773.2 234 732.9C227.4 706.7 216.2 638.7 259.3 639.3C279.6 640 302.2 668.4 312.9 683.4C314.2 685.3 318.3 685.2 320.3 685.1L321 685C325.4 688.4 322.8 704.5 332.4 704.6C335.3 706.9 337.2 711.1 337.9 714.7C340.7 714.6 340.1 714.2 342.2 715.4C343.4 717.4 343.5 725.4 343.6 728.3C343.8 738.4 345.4 747.2 347 757.1C352.3 760.7 352.1 761.3 352.8 767.7C352.2 772.1 350.8 775.4 350.6 779.6C351.7 781.8 351.7 788.2 352.4 791.5C353.4 802.3 351.4 829.1 356.8 836.2L358 836.2C359.8 834.5 360.3 832.5 361.2 830.1L361.9 830.2C363.5 841.7 360.4 850.2 363.4 863.5Z" fill="white"/><path d="M337.9 714.7C340.7 714.6 340.1 714.2 342.2 715.4C343.4 717.4 343.5 725.4 343.6 728.3C343.8 738.4 345.4 747.2 347 757.1C352.3 760.7 352.1 761.3 352.8 767.7C352.2 772.1 350.8 775.4 350.6 779.6C345.2 776.7 347.9 771.8 346.3 766.4C345.6 766 342.8 764.6 342.5 764C336.8 752.3 336.7 726.4 337.9 714.7Z" fill="black"/><path d="M255.8 686.3C274.1 685.4 297.4 715 305.1 729.4C310.2 738.9 301.5 737.9 299.1 738.8C293.2 743.3 294.3 758.4 294.8 763.7C296.8 782.3 306.6 791.1 316.4 804.9C316.8 807 316.6 807.4 315.9 809.4C310.4 811.6 307 809.6 302.9 805.1C287.9 788.3 273.6 748.3 293.5 730.3C286.3 719.4 277.9 709.2 267.7 701C263.3 697.4 254.8 696.5 253.1 691C253.5 688.5 254 688.3 255.8 686.3Z" fill="black"/><path d="M248.5 594.2C250.7 593.8 252.7 593.9 253.8 592.2C256.6 588.2 259.6 583 262.6 579.2C276.1 562.2 293 541.1 309.6 527.2C320.8 532.6 330.6 535.2 342.6 538.2C341.3 542.1 340 545.9 338.4 549.7C336 555.1 333.5 560.4 331.2 565.9C330.9 566.7 331.6 569.2 331.9 570.1C328.9 576.3 322.3 581.9 324.3 588.4L325.2 588.9C331.2 585.4 346.7 547.3 348.9 539.5C356.6 540.5 363.9 541.6 371.6 542C369.6 549.5 368.8 557.8 366.8 566C364.4 576 348.4 595.8 350.6 602.8C354.4 605.3 360 597.3 362 594.5C362.4 597.6 362.9 600.8 363.3 604C369.7 616.1 368.8 646.8 365.8 660.1C365.1 663 362.1 674.8 362 676.4C362.9 681 363.7 685.6 364.7 690.2L365.9 690.8C371.6 696.7 370.1 722.2 369.5 730.8C370.5 733.8 372.4 743.9 373.5 745L373.8 745.1C372.5 745.7 371.5 745.8 371.2 747.2C369.8 754.7 371.6 763.8 370.7 771.4C369.7 772 369.8 774.7 367.8 777.1C364.6 776.2 357.6 769.8 352.8 767.7C352.1 761.3 352.3 760.7 347 757.1C345.4 747.2 343.8 738.4 343.6 728.3C343.5 725.4 343.4 717.4 342.2 715.4C340.1 714.2 340.7 714.6 337.9 714.7C337.2 711.1 335.3 706.9 332.4 704.6C334.4 695.6 327.1 684.2 326.2 674.2C325.3 664.8 326 652.9 325.5 643.2C325.4 641.8 327.8 633.1 327.9 628.8C326.9 626.5 327.7 627.4 325.6 626.1C321 625.8 321.1 630.8 320.2 634.4C317.2 646.5 316.5 658.3 316.7 670.7C298 647.6 285.1 629.9 253.6 628.3C254.4 622.5 257.5 617.5 255.3 611.8C252 609.1 249.4 613 247.2 615.5C244.3 614.7 241.8 613.7 239 612.6C241.7 605.3 244.6 600.8 248.5 594.2Z" fill="#373737"/><path d="M363.3 604C369.7 616.1 368.8 646.8 365.8 660.1C365.1 663 362.1 674.8 362 676.4C361.2 679.1 361 679.5 359.4 681.8C357.4 682.9 358.5 682.7 356.1 682.5C354.4 681.4 354.5 681.5 353.7 679.5C353.5 673.8 356.1 666.5 357.2 660.8C359.3 649 361.2 638.1 359.8 626.1C359.3 621.7 356.9 609.3 358.4 605.7C359.9 604.3 361.2 604.3 363.3 604Z" fill="black"/><path d="M365.9 690.8C371.6 696.7 370.1 722.2 369.5 730.8C367.5 732.8 367.3 733.5 364.6 732.6C362.2 729.6 364.3 712 363.6 706.8C363.1 703.1 363 697 362.7 693.1C364 691.2 363.6 691.8 365.9 690.8Z" fill="black"/><path d="M310.9 564.3C313.3 564.7 313.6 564.8 314.6 566.8C314.4 568.8 310.5 574.4 309.2 576.4C304.5 583.6 300.9 590.8 297.2 598.5C296.2 598.5 295.6 598.3 294.5 598C289.3 591.7 306 569.1 310.9 564.3Z" fill="black"/><path d="M580.9 64.6C594.2 64.1 613.7 65.4 627 66.6C664.4 69.7 708.4 74.8 743.4 89.6C808.1 117 849.3 178.6 875.1 241.1C868.2 241.8 863.2 240.7 859.1 241.1C855.8 243.9 845.7 244.1 841 244.7C830.1 246.1 819.2 247.6 808.4 249.4C785.9 253.1 763.6 257.6 741.5 262.7C645.7 285.3 580.7 315.3 498.7 368.5C463.8 391.3 430.8 418.3 397.5 443.3C394.8 445.3 392.3 447.4 389.4 449.2C388.4 448.3 387.4 447.3 386.4 446.2C384.6 446.2 385.4 445.9 383.9 447.3C383.2 449.4 384.1 450.9 384.8 453L355 475.5C335.8 413.4 317.7 347.4 313.2 282.2C310.8 248.6 314.6 198 337.4 171.5C341.8 166.4 359.1 154.2 365.6 150.1C418.5 117.3 478 89.5 537.8 71.6C552.5 67.2 565.8 65.3 580.9 64.6Z" fill="#E0E0DF"/><path d="M612 89C667.4 83 725.7 131.2 734.5 185.5C737.2 200.9 733.4 216.7 724.1 229.3C707 252.8 677.4 263.3 649.6 267.5C647.5 267.8 645.4 268.1 643.3 268.3C613.7 271.5 582.5 266.4 558.9 247.1C540.2 231.7 528.4 209.4 526.2 185.2C523.8 162.5 530.6 139.8 545.2 122.2C562 101.9 586.2 91.5 612 89Z" fill="black"/><path d="M617.4 101.9C664.6 98.3 715.6 142.8 721.9 189.2C686 161.3 642.1 167.7 613.5 202.5C600.4 219 597.3 231.2 594.3 251.6C583.3 248.1 573.1 242.4 564.5 234.8C548.9 220.9 539.4 201.3 538.2 180.5C537.1 161.4 543.7 142.7 556.6 128.6C572.5 110.7 594.1 103.1 617.4 101.9Z" fill="#E0E0DF"/><path d="M623.5 120.2C635.9 118.8 645 123 655.6 128.4C673.5 137.6 664.4 148.8 653 158.3C638.1 170.6 619.5 178 600.7 181.8C597.4 182.5 594.5 183.1 591.2 183.9C582.3 186 570.1 188.6 562 184.1C545 174.7 559.2 147.6 574.9 145.5C582.4 144.6 585.9 145.6 591.7 149.4C596.9 132.6 605.8 123.1 623.5 120.2Z" fill="black"/><path d="M622.7 128.1C629.3 127.4 632.4 128.3 638.8 129.7C623.9 138.5 626.1 146 639.4 154.8C630.9 161.4 606.8 171.5 596.2 171.8C592.5 168.8 590 168.5 586.8 172.3C584.1 175.4 584.9 175.2 581.2 176.3C573.7 176.9 570.8 177.2 563.6 175.7C563.6 161.7 571.4 148.8 586.7 154.8C589.7 156 588.9 159 591.2 161.7C593.4 162.7 597.3 162.6 597.6 159.9C599.8 142.7 604.6 132.4 622.7 128.1Z" fill="#B1AFB0"/><path d="M645.6 136.1C649.4 136 653.3 136.2 655.9 139.2C657.2 145.2 650.1 148.7 645.6 151.3C643.9 151.3 638.4 147.3 637.5 145.9C633.9 140 641.8 137.9 645.6 136.1Z" fill="#B1AFB0"/><path d="M672.8 193.1C690.3 190.8 707.2 200.2 719.5 211.9C706.5 238.3 681.4 248.3 654.1 254.2C647.8 255.2 612.7 259.8 610.7 253.6C612.1 248.8 619.8 236.3 623.2 232.4C626 231.3 625.5 232.1 629 232.6C629.9 232.1 631.1 231.5 631.4 230.5C637 209 650.7 196.7 672.8 193.1Z" fill="#E0E0DF"/><path d="M647.8 185.6C651.6 186.7 656.6 187.9 660.1 189.6C648.1 194.5 640.2 200 633 210.9C630.7 214.5 628.7 218.3 626.3 221.8C624.5 224.4 618.9 226.9 617.2 229.1C611.8 236.4 609 241.6 602.7 248.3C604 227 613.9 211.3 628.1 196.1C628.1 196 646.6 186.1 647.8 185.6Z" fill="#747374"/><path d="M647.8 185.6C661.9 179.8 678.4 176.5 693.6 181.1C697.1 182.1 699.1 186.1 697.6 189.5C694.2 190.3 685.1 186.9 681.3 186.7C674.4 186.4 666.7 187.5 660.1 189.6C656.6 187.9 651.6 186.7 647.8 185.6Z" fill="#5C5C5C"/><path d="M343.9 272.1C345.1 272.9 346.2 273.3 346.4 274.9C347.1 280.4 349.7 290.5 346.9 295.2C346.2 294.9 345.4 294.3 344.8 293.9C342.5 289.8 341.1 276.1 343.9 272.1Z" fill="black"/><path d="M358.2 178.1L360 179.2C360.8 182.7 353.9 195.8 351.9 200.1C349.8 199 350.6 199.8 349.6 197.8C349.6 192.1 354.2 182 358.2 178.1Z" fill="black"/><path d="M344.1 226.1C345.1 226.4 346.6 226.8 346.7 228C347 232.8 346.5 245 344.5 249.2C343.1 248.7 342 248.4 341.7 246.8C340.7 241.3 341.6 230.9 344.1 226.1Z" fill="black"/><path d="M841.6 205.4C846.8 206.5 853.4 220.1 852.1 225.1L849.9 224.7C846.8 222.4 840.2 209.5 841.6 205.4Z" fill="black"/><path d="M359.9 362.7C364.3 364.7 368.1 380.8 366.6 384.3C365.2 384.1 365.4 384.1 364 383.6C360.9 379.6 357.9 367.3 359.9 362.7Z" fill="black"/><path d="M349.4 318L351.7 318.7C354.2 322 356.8 336 355.1 339.9C349.8 338.7 347.9 321.9 349.4 318Z" fill="black"/><path d="M371.5 406.2C373.1 406.7 374.2 406.8 374.9 408.5C376.5 412.3 380.8 422.9 379.7 426.5C379.5 426.5 378.5 426.7 378.3 426.6C373.4 424.7 370.4 409.8 371.5 406.2Z" fill="black"/><path d="M819.5 167.4C824.2 168.9 829 177.4 831.3 181.7C832.2 183.5 831.8 184.2 831.2 185.9C826.4 185.4 821.9 175.3 819.2 171.6C818.2 170.1 819 168.8 819.5 167.4Z" fill="black"/><path d="M317.4 518.6C324.4 511 340.8 498.9 349.2 492.4C367.9 477.7 388.1 463.5 406.8 448.7C484.3 387.2 563.9 331.6 657.8 297.7C687.4 287 717.1 279.2 747.9 271.9C796.4 260.4 846.3 252.8 896.2 250.4C950 247.7 1014.5 255.3 1056.3 292.8C1069.4 304.5 1078.4 320.2 1078.9 338.1C1079.2 347.4 1076.7 356.6 1071.7 364.4C1071.6 363.1 1072.2 353.3 1072.3 351.3C1071.8 332.8 1064.1 316.1 1050.6 303.4C1012.8 267.7 948.4 261.1 899 262C810.3 263.6 738.2 307.8 669.8 360.3C632.6 388.9 597.1 418.8 560.6 448.5C530.5 473.1 496.5 501.2 460.7 516.8C433 528.9 402.8 534.1 372.7 531.8C357.9 530.9 330.3 526.3 317.4 518.6Z" fill="#E0E0DF"/><path d="M578.2 397.2C580.2 397.6 580.5 397.9 580.6 399.7C578.5 403.8 568.4 410.8 564.3 413.8C563.4 413.7 563.2 413.4 562.3 412.9L562 411.5C564 407.1 574 400.2 578.2 397.2Z" fill="black"/><path d="M620.6 364.2C622.4 364.3 621.6 364 623 365.1L623.2 366.3C621.4 370.1 610.3 377.7 606.5 380.4C605 380.1 605.7 380.4 604.5 379.2L604.5 377.6C606.9 373.5 616.4 367.2 620.6 364.2Z" fill="black"/><path d="M661.6 333.6C663.1 333.7 662.6 333.5 663.9 334.3L664.2 335.7C661.9 339.7 651.7 346.2 647.6 349.1C645.9 348.6 645.8 348.2 645.4 346.8C646.6 342.7 657.5 336.3 661.6 333.6Z" fill="black"/><path d="M498.8 459.7C499.5 460.2 499.8 460.7 500.4 461.4L500.3 462.8C497.6 467 488.6 472 484 474.9C482.1 474.1 482.2 473.9 482 472.2C484.4 468.1 494.5 462.1 498.8 459.7Z" fill="black"/><path d="M538 429.7C539.9 431.3 539.4 430.3 539.7 432.5C537.6 436.8 528.1 443.2 523.9 446C522 445.1 521.9 444.8 522.1 443C524.9 438.4 533.3 433 538 429.7Z" fill="black"/><path d="M702.9 305.3C703.2 305.5 704.4 306.3 704.8 306.5L705 307.9C702.8 311.5 692.2 317.3 688.1 319.8C686.7 319.2 687.2 319.5 686.2 318.2L686.4 316.7C689.9 312.3 697.9 308.3 702.9 305.3Z" fill="black"/><path d="M458.1 485.4C459.5 485.7 459 485.6 460.2 486.6L460.3 487.9C457.6 491.9 447.9 495.7 443.5 497.4C442.1 497.2 442.5 497.3 441.3 496.6L441 495.4C442.5 492.2 454.6 487.1 458.1 485.4Z" fill="black"/><path d="M742.1 282.2C744.4 282.3 743.6 281.9 745 283.2L744.9 284.5C742.2 287.4 732.9 291.9 728.9 294L727.6 294.2L726.3 293.1L726.4 291.8C729 288.2 737.8 284.4 742.1 282.2Z" fill="black"/><path d="M682.1 364.2C724.8 328.6 791.4 290.9 845.9 279.2C905.4 267.2 977.8 267.2 1031.2 299.2C1056.2 314.2 1060.2 329.8 1065.9 355.6C1067.9 354.5 1070.4 352.7 1072.3 351.3C1072.2 353.3 1071.6 363.1 1071.7 364.4C1069.7 367.5 1065.9 371.5 1063 373.8C1063 372.7 1063 372.4 1062.9 371.3C1061.2 373.8 1059.5 378.9 1057.6 380.9C1031.9 407.6 983.9 428.2 948.9 433.2C946.9 429 941.5 418.1 938.9 414.6C928.3 400.1 912.7 385.9 898 376.1C856.7 348.7 797.4 347.1 749.7 352.4C727 355 704.4 359.7 682.1 364.2Z" fill="#373737"/><path d="M977.4 361.6C978.7 362.3 979.7 363.1 980.9 364C981.4 365.2 982 366.1 981.2 367.4C977.4 373.2 965.1 384.4 959.4 387.1L957 386.2C955.5 384.3 955.8 385.4 955.7 383.1C957.3 378.7 972.9 365.7 977.4 361.6Z" fill="black"/><path d="M929.9 293.8C931 293.9 931.3 294.1 932.3 294.4C933.5 296.1 933.3 295.2 933 297.3C929.8 301.9 909.9 313.3 904.1 316.7C901.8 315.3 901.1 315 900.4 312.8C902.6 308.4 924.5 296.5 929.9 293.8Z" fill="black"/><path d="M939.7 338.4C942.5 338.8 943.9 339.4 944.1 342.2C941.3 348.7 927.7 357.1 921.8 360.8C920.7 360.8 919.8 360.6 918.7 360.4C917 359 917.5 359.9 917.1 357.7C918.9 353.3 935.1 341.9 939.7 338.4Z" fill="black"/><path d="M888.3 320.2C890.8 320.5 892.2 320.4 894.4 321.6L894.5 322.6C891.5 326.7 874.5 336.6 869.3 339.3C866.6 340.1 866 340.3 863.8 338.9C862.2 334.9 868.3 331.7 871.2 329.9C876.8 326.5 882.5 323.2 888.3 320.2Z" fill="black"/><path d="M971.5 309C974.1 309.4 974.6 309.8 975 312.2C973.1 317.2 956.1 331.6 951.4 335.8C943.4 332.2 950.6 327.6 954.7 323.7C959.8 318.9 965.7 312.9 971.5 309Z" fill="black"/><path d="M834.5 311C836.7 310.8 838.8 310.7 839.9 312.9C838.7 316.6 817.8 327.4 812.8 330.2C810.4 330.9 808.1 331.4 807.1 328.7C809.2 322.7 828.4 314 834.5 311Z" fill="black"/><path d="M874.4 292.7C876 292.5 875.9 292.5 877.4 293C878.5 294.8 878.4 293.9 878.1 295.7C874.7 299.7 857.5 306.3 851.8 308.6C849.3 308.6 850.4 308.9 848.3 307.6C847.9 306.7 847.4 306.3 847.9 305.7C851.7 300.5 868.3 294.9 874.4 292.7Z" fill="black"/><path d="M997.8 335.9L1000.2 336.3C1001.9 337.7 1001.3 336.9 1001.7 339.1C999.8 345.4 990.4 355.6 985.7 360.9C984.4 361.1 984.5 360.8 983 360.3C982.4 359.5 981.8 359 981.9 358.2C982.6 353.1 994.3 339.1 997.8 335.9Z" fill="black"/><path d="M970.9 544.4C991.5 543.4 1002.3 590 1005.7 606.3C1014.4 647.5 1017.1 691.2 1008.1 732.6C1005.6 744.6 1001.6 757.7 990.8 764.5C990.4 757.3 989.8 749.8 989.3 742.6C988.4 730.8 987.3 719 985.9 707.2C985 699.9 983.9 692.1 983.2 684.8C983 683.8 984.6 678.4 984.7 676C985.5 660 985.1 648.1 974.5 635.7C975.7 623.7 977.6 610.8 980.8 599.2C981.7 595.9 982.6 592.8 983.3 589.5C982.5 587.4 983.2 588.2 981.4 587C973.1 586.2 970.4 608.3 968.8 615C967.5 609.7 962.3 593.2 962.3 588.6C962.2 576.3 963.7 560.6 963.9 548L970.9 544.4Z" fill="white"/><path d="M901.2 391.9C909.5 396.7 940.6 427.9 940.2 436.6C938.5 435.8 937.5 435.1 935.7 434.9C933.2 436.7 932.1 439.2 933.9 441.8C942.9 455 949.1 466.4 954.6 481.6C951.7 483.7 942 477.7 947 488.2C952 498.6 963.7 519.4 961.6 531C959.4 532.7 959.5 530 955.9 531.3C953.5 534.9 954.9 539.7 955.5 544.2C956.6 548.7 956.1 559.7 955.7 564.4C944.4 527.3 935 492.2 922.6 455.1C925.5 457.6 926.8 458.5 930 460.6L929.4 458.8C927.2 452.2 925.8 449.8 919.9 446C918.7 443.1 917.6 440 916.7 437C912.3 421.8 905.6 407 901.2 391.9Z" fill="#373737"/><path d="M373.8 745.1C374.9 746.2 375.5 746.7 376.2 748.1C376.6 751.6 376.4 754.1 376.3 757.6C386.8 763.9 384 779.4 386.9 789.7C388 793.6 391.3 797.7 392.5 801.6C393.5 805.2 394 809.2 395.8 812.3C402.6 811.4 399.9 813.3 404.7 815.2C411.1 818.5 409.4 827.6 411.3 834.5C417.1 843.2 417.3 861.3 422.6 866.5C427.3 864.9 427.3 865.1 431.4 867.7C433.6 869.3 434.1 869.6 434.9 872.1L435.5 873.1C439.6 880.2 443.1 893.4 447.5 898.1C451.6 897.7 452.1 897.3 456 898.7C456.4 896.5 456.4 896.2 457.6 894.2L458.6 894C463.2 896.8 461.8 904.9 463.2 908.5C469.6 914.9 472.8 924.6 478.3 932.3C480.6 930.1 481.5 929 484.8 928.8C485 925.7 484.5 926.5 486.1 924.2C487.8 923.4 487 923.4 488.7 924C491.7 927.7 491.4 934.8 492.4 939.6C498.7 944 500.2 949.2 504.9 955.2C516.3 945.6 523.7 960.7 532 968.2C534.8 961.6 537.9 959.1 545.3 958.7C544.7 955.4 543.9 952.4 545.9 949.5C549.9 950.7 550.3 956.3 550.8 959.8C563.7 965.6 559 974.4 564.4 980C566 979.9 567.3 979.7 568.9 979.9C574.4 978.7 579.6 985.5 583.5 989.2C585 986.6 587 982.8 589.4 980.9C591.4 979.2 592.5 979.9 595.2 980.3C598.4 974.3 597.5 949.1 606.7 946.1C615.3 943.4 613.8 963.3 614.1 967.8C617.2 966 618.1 965.2 621.7 965.8C623.8 967.7 624.9 968.5 626.5 970.8C626.7 975.6 627.1 988.4 629.5 992.3C632.1 991.9 631.3 989 634.7 989.1C636.4 989.1 637.9 989.6 639.9 989.7C641.9 988.8 640.9 988.8 642.9 989.5C645.8 992.3 646.3 997.4 647.1 1001.5C651 1006.1 651.5 1006 657.3 1007.7C662.1 1013 664.1 1018.3 669.4 1023.7C679.3 1009.1 689.8 1025.9 697.6 1032.8C700.5 1030.3 701.6 1029.2 705.1 1027.5C708.6 1025.9 711 1026.7 713.5 1025.8C713.1 1023.6 712.9 1023.1 713.3 1020.8L714.8 1019C719.2 1020.5 720.1 1026.3 721 1030.3C725.9 1032.4 730.9 1036.5 737.2 1039.3C748 1030.4 752.2 1027.9 764.2 1036.4C770.1 1036.6 772.9 1026.4 778.7 1022.7C779.3 1018.4 779.1 1010.3 782.4 1007.7C784.4 1008.1 783.5 1007.7 785.1 1009.5L785.9 1013.1C788.8 1011.4 790.4 1008.9 793.1 1010.1C796.1 1011.4 795.4 1014.4 798.7 1013.8C799.8 1012.5 800.2 1012.1 801.2 1010.7C802 1007.9 802.3 1006.6 805.4 1006.2C807.3 1007.5 806.7 1007.1 807.9 1009.4C814.1 1011.7 815.9 1014 820.7 1018.4C825.9 1012.7 827.8 1010.6 834.4 1006.7C833.6 1004 832.9 1002.3 833.4 999.6L834.3 998.3C839 998 839.5 1003.9 840.3 1007.4C846 1007.9 847.5 1009.6 851.3 1013.6C858.7 1006.8 860.7 1000.8 866.3 993C870.9 985.8 876.8 990.2 882.3 989.4C888.5 986.4 885.9 974.5 894 973.3C896.8 972.9 897.4 962.5 897.8 959.8C898.5 955.1 899.7 948.8 903.6 945.3C906.4 942.8 909.5 945 912.6 944.1C916.1 933.3 911.3 913.5 922.4 909.9C921.6 907 920.3 903.6 920.8 900.9C922.2 898.8 921.7 899.4 924.4 898.2C930 895.3 922.7 868.8 927.8 861.1C935.7 856.9 942.4 875.8 946.5 880.8C949.9 869.8 948 865.9 957.2 856.7C956.8 854.9 956.4 853.1 956.1 851.3C955.6 848.6 955.6 845.3 957.2 843.1L958.4 843.2C960 844.7 960.2 845.9 961 848C963.3 842.9 964.3 840.2 967 834.9C970.3 830.9 971 828.8 970.4 823.7L972.3 823.3C974.2 820.1 972.4 811.3 973.3 806.1C974.9 803.5 975.3 803.3 978.2 802.7L978.4 802.7C979.3 801.3 979.6 784.1 979.7 781.2C984.4 788.3 986.7 811.7 986.2 820.4L985.9 820.7L985.3 820.3C983.9 819.3 983.2 818.6 981.5 818.7C980.6 819.7 980.1 820.5 980.5 822C982.7 829.9 986.7 837.1 988.4 845.1C988.6 845.9 990.3 846.7 991 846.8L990.4 847.4C990.5 849.7 990.7 852 990.2 854.2C992.5 866.9 994.3 879.9 986 891.1C985.7 897.6 985 909.5 980.8 915.1C980.4 915.7 978.1 917.1 977.3 917.5C976.8 919.1 976.4 923.9 976.4 925.8C976.5 933.1 973.2 944.5 968.7 950.3C967.5 950.9 966.3 951.4 965.1 952C963.6 956.4 963.6 960 962.4 963.8C958.7 975.3 951.6 989 943.8 998.3L939 999.6C935.2 1010.8 926.5 1030.5 916 1036.2C910.3 1047.8 902.2 1064 890 1071.7C889 1072.4 884.4 1072.3 883.3 1073.3C879.8 1076.5 877.5 1081 874.5 1084.5C867.7 1092.4 859 1098.8 849.8 1103.5C843 1107.2 836.7 1108.5 829.3 1110C826.2 1110.6 816.5 1116.8 813.6 1116.9C800.8 1117.2 793.7 1125 782.2 1128.2C772.7 1130.8 763.1 1131.4 753.5 1132.4C751.4 1132.6 743.7 1135.4 741.7 1136.2C727.4 1142.1 715 1138.2 700.7 1136C696 1135.2 698.8 1141 692.5 1140.9C681.5 1140.6 671.5 1133.5 660.7 1135.2C657.5 1134.9 651.8 1132.4 649 1131.2C643.7 1128.9 639.7 1130.5 634.1 1129.7C622.2 1127.9 611.8 1121.7 600.8 1118.3C596.5 1117.2 593.9 1115.8 590.2 1113.7C588.8 1114.7 588.5 1114.8 586.9 1115.5C579.4 1115.5 567.3 1105.1 561.1 1101.7C558.7 1100.4 552.3 1099.2 549.4 1098C547.4 1097.2 539.9 1092.2 538.8 1092C530.8 1090.5 534.4 1092.6 527.5 1088.7C520 1084.3 516.3 1077 510.2 1072.8C508.9 1073.4 507.9 1073.8 506.6 1074.2C500.2 1073.7 491.3 1063 485.7 1058.6C480 1060.4 479.8 1059 475.4 1055.8C467.5 1050.2 462.8 1042.8 457.2 1035C446.8 1032.7 437.7 1019.3 435.7 1009.2C434.9 1009.5 433.4 1010 432.8 1010.1C421.5 1013.7 419.6 990.7 415.8 988.4C408.1 983.5 409.1 985.1 403.1 976.2C394.4 963.2 394.1 955 393.6 940L393.3 940C393.3 938.9 391.1 925.4 390.6 924.3C387.5 917.3 392.2 888.8 385.4 886.7C381.9 888.3 381.8 890.1 381 893.7C377.7 883.2 375.2 872.5 374.1 861.5C373.6 856.9 374.9 852.3 374 846.8C372.4 845 371.9 845.3 369.3 845C368.9 839.5 370.2 833 370.3 827.5C370.4 823.8 370.5 823.8 368.2 821.4C366.2 820.8 367.1 820.7 365.4 821.6C363.6 823.9 363.5 825 362.7 827.9C359.1 816.5 360 809.7 359.4 798C359.2 795 358.6 791.8 356.2 789.9C354 789.9 354.7 789.9 352.4 791.5C351.7 788.2 351.7 781.8 350.6 779.6C350.8 775.4 352.2 772.1 352.8 767.7C357.6 769.8 364.6 776.2 367.8 777.1C369.8 774.7 369.7 772 370.7 771.4C371.6 763.8 369.8 754.7 371.2 747.2C371.5 745.8 372.5 745.7 373.8 745.1Z" fill="#8B8A8A"/><path d="M984.7 869C984.7 868.4 984.6 866.5 984.7 866C985.2 859.4 978.6 847.3 982.2 841.7C986.5 840.2 989 850.8 990.2 854.2C992.5 866.9 994.3 879.9 986 891.1C985.8 897.6 985 909.5 980.8 915.1C980.4 915.7 978.1 917.1 977.3 917.5C976.8 919.1 976.4 923.9 976.4 925.8C976.5 933.1 973.2 944.5 968.7 950.3C967.5 950.9 966.3 951.4 965.1 952C963.6 956.4 963.6 960 962.4 963.8C958.7 975.3 951.6 989 943.8 998.3L939 999.6C935.2 1010.8 926.5 1030.5 916 1036.2C910.3 1047.8 902.2 1064 890 1071.7C889 1072.4 884.4 1072.3 883.3 1073.3C879.8 1076.5 877.5 1081 874.5 1084.5C867.7 1092.4 859 1098.8 849.8 1103.5C843 1107.2 836.7 1108.5 829.3 1110C826.2 1110.6 816.5 1116.8 813.6 1116.9C800.8 1117.2 793.7 1125 782.2 1128.2C772.7 1130.8 763.1 1131.4 753.5 1132.4C751.4 1132.6 743.7 1135.4 741.7 1136.2C727.4 1142.1 715 1138.2 700.7 1136C696 1135.2 698.8 1141 692.5 1140.9C681.5 1140.6 671.5 1133.5 660.7 1135.2C657.5 1134.9 651.8 1132.4 649 1131.2C643.7 1128.9 639.7 1130.5 634.1 1129.7C622.2 1127.9 611.8 1121.7 600.8 1118.3C596.5 1117.2 593.9 1115.8 590.2 1113.7C589.8 1111 589.9 1110 588.2 1108.2L588.4 1106.3C586.3 1103.9 586.1 1102.4 587 1099.4C589.8 1097 592 1098.4 595 1101C603.3 1107.9 616.5 1117.6 627.7 1117.7C634.4 1117.8 637 1121.1 643.2 1122.6C640.1 1120.1 633.6 1115.4 635.7 1110.7C641 1108.8 655.3 1122.6 662.7 1125.5C671 1123.8 671.9 1128.1 678.9 1129.5C688 1131.4 693.7 1131.5 702.5 1135C698.5 1131.6 689.4 1126.8 691 1121C692 1120.2 692.9 1119.1 694.2 1119.7C704.9 1123.9 705.1 1126.8 717.1 1129.2C734.1 1132.6 746 1122 758.5 1121.7C762.7 1117.5 770.4 1105.2 775.1 1104.8C779 1109.1 770.8 1117.8 768 1121.5C784.9 1118.7 786.7 1116.6 802.4 1110C808 1101.6 811.9 1094 813.6 1084C814 1081.1 815 1073.6 818.5 1073.3C824.1 1080 815.9 1099.9 812.6 1106.9C822.1 1104.4 826.5 1101.8 835.4 1097.6C839.3 1090.9 840.5 1087 842.7 1079.4C845.6 1078.6 845.9 1079.7 847.7 1082.1C846.6 1087.8 845 1092 843 1097.5C844.1 1097.1 845.1 1096.6 846.1 1096.2C862.6 1088.2 878.9 1070.6 883.2 1052.7C884.7 1046.5 885.5 1038.9 887.4 1033.4C888.9 1032.5 888.1 1032.8 889.9 1033C894.5 1038.1 889.1 1056.7 887.4 1062.5C901.6 1051.4 909.6 1034.3 914.4 1017.2C915.8 1012.3 914.8 1002.2 920.1 1000.1L921 1000.7C923.5 1006.1 922.1 1013 921 1018.5C928.6 1007.4 933.5 994.5 938.3 981.9C940 977.4 939.2 970 944.5 968.2C947.9 970.9 946.6 977 945.8 980.6C955.3 965.8 957.8 953.4 959.8 936.7C959.9 935.4 960.8 935.1 961.8 934.6C963.7 935.1 964.8 935.7 966.5 934.9C975.1 924.4 962.9 890.9 969.3 888.5L970.5 889.1C973.8 893 974.4 900.7 975.8 906.1C979.9 891.3 979.6 883.4 977 868.5C976.7 866.9 977.4 864.7 978.6 863.5L980.1 863.6C982.7 865.1 983.1 866.3 984.7 869Z" fill="black"/><path d="M588.4 1106.3C591.4 1109 599.9 1115.3 600.8 1118.3C596.5 1117.2 593.9 1115.8 590.2 1113.7C589.8 1111 589.9 1110 588.2 1108.2L588.4 1106.3Z" fill="#4C4B4B"/><path d="M393.6 940C393.7 935.6 393.2 932 395.7 928.4C397.8 927.4 396.8 927.6 399 927.9C401.4 930.3 401.6 933.4 401.5 936.8C401.1 952.4 402.6 960.3 411.7 973C411.4 968.4 410.4 964.4 412.7 960.6C414.7 959.5 413.7 959.6 415.9 959.9C422.4 966 422.7 1001 434.7 1001.5C435.3 1001.6 438.2 1000.6 439 1000.3C441.6 1001.6 440.9 1005.5 440.9 1008.2C444.5 1013.2 447.1 1016.5 451.2 1021C449.6 1016.4 444.6 1003.1 447.9 999C449.8 998.5 448.8 998.5 450.8 999.2C453 1002.6 454.3 1007.3 455.8 1011.1C460.2 1022.5 467 1038.2 477 1045.6L477.5 1045.3L477.5 1044.4C477.4 1042 477.2 1041.2 478.2 1039.1C481.9 1037.4 485.8 1044.3 487.5 1047.1C491.9 1054.9 498.7 1059.2 506.1 1063.7C503.6 1058.7 497.6 1046.7 499.8 1041.2C504.8 1039.2 508 1052 509.8 1055C514.2 1062.1 523.8 1084.2 534.7 1080.2C535.1 1080.1 535.5 1079.9 536 1079.7C541.1 1081.7 546.1 1086.7 552.9 1089.9C550.7 1085.6 545.5 1076.1 547.5 1071.6C551.7 1070.3 554.7 1078.1 556.5 1081C564.8 1094.2 574.5 1101.4 588.2 1108.2C589.9 1110 589.8 1111 590.2 1113.7C588.8 1114.7 588.5 1114.8 586.9 1115.5C579.4 1115.5 567.3 1105.1 561.1 1101.7C558.7 1100.4 552.3 1099.2 549.4 1098C547.4 1097.2 539.9 1092.2 538.8 1092C530.8 1090.5 534.4 1092.6 527.5 1088.7C520 1084.3 516.3 1077 510.2 1072.8C508.9 1073.4 507.9 1073.8 506.6 1074.2C500.2 1073.7 491.3 1063 485.7 1058.6C480 1060.4 479.8 1059 475.4 1055.8C467.5 1050.2 462.8 1042.8 457.2 1035C446.8 1032.7 437.7 1019.3 435.7 1009.2C434.9 1009.5 433.4 1010 432.8 1010.1C421.5 1013.7 419.6 990.7 415.8 988.4C408.1 983.5 409.1 985.1 403.1 976.2C394.4 963.2 394.1 955 393.6 940Z" fill="black"/><path d="M404.7 815.2C411.1 818.5 409.4 827.6 411.3 834.5C411.5 838.1 412.8 845.9 411 848.8C409.5 848.5 408.6 847.9 407.4 848.8C404.9 853.4 403.6 864.3 403.7 869.9C403.9 874.5 408.3 882.7 405.7 887.1L404.2 887.1C399.9 884.2 396.7 860.6 399 855.3C400.2 852.6 401.5 847.2 402.9 844.8C403.4 844.6 406.2 843.3 406.2 843.1C406.4 835.6 401.4 821.8 404.7 815.2Z" fill="black"/><path d="M801.2 1010.7C802 1007.9 802.3 1006.6 805.4 1006.2C807.3 1007.5 806.7 1007.1 807.9 1009.4C809.5 1016.3 814.4 1034.6 812.7 1041.1C811 1042.6 812 1042 809.5 1042.5L808 1041.7C806.1 1028.8 805.5 1023.3 801.2 1010.7Z" fill="black"/><path d="M456 898.7C456.4 896.5 456.4 896.2 457.6 894.2L458.6 894C463.2 896.8 461.8 904.9 463.2 908.5C463.7 915.6 464.6 922 466.1 928.9C466.5 930.6 466 931.1 465.1 932.1C460.7 932.4 460.3 928 459.5 924.5C457.6 916.1 457.4 907.3 456 898.7Z" fill="black"/><path d="M484.8 928.8C485 925.7 484.5 926.5 486.1 924.2C487.8 923.4 487 923.4 488.7 924C491.7 927.7 491.4 934.8 492.4 939.6C493.1 944.3 495.8 952 492.8 955.6H491.5C485.5 950.5 488 934.3 484.8 928.8Z" fill="black"/><path d="M564.4 980C566 979.9 567.3 979.7 568.9 979.9C569.7 983.2 570.2 988.9 570.8 992.5C571.6 997.2 575 1008 572.6 1012L571.6 1012.2C566.5 1008.3 563.8 986.5 564.4 980Z" fill="black"/><path d="M713.5 1025.8C713.1 1023.6 712.9 1023.1 713.3 1020.8L714.8 1019C719.2 1020.5 720.1 1026.3 721 1030.3C722.1 1034.6 726.6 1044.8 724.8 1048.3C723.2 1049 724 1049 722.2 1048.3C717.3 1043.1 716.2 1032.2 713.5 1025.8Z" fill="black"/><path d="M922.4 909.9C921.6 907 920.3 903.6 920.8 900.9C922.2 898.8 921.7 899.4 924.4 898.2C926 904.1 932.9 924.4 927 929L925.8 929C923 925.7 922.8 914.6 922.4 909.9Z" fill="black"/><path d="M778.7 1022.7C779.3 1018.4 779.1 1010.3 782.4 1007.7C784.4 1008.1 783.5 1007.7 785.1 1009.5C784.9 1014.8 784.3 1032.9 781 1037.2C780.5 1037.8 780 1037.6 779 1037.5C776.5 1034.2 778.2 1027.3 778.7 1022.7Z" fill="black"/><path d="M545.3 958.7C544.7 955.4 543.9 952.4 545.9 949.5C549.9 950.7 550.3 956.3 550.8 959.8C551.4 963.8 555.1 976.7 551.2 978.4C546.4 976.9 545.9 963.5 545.3 958.7Z" fill="black"/><path d="M373.8 745.1C374.9 746.2 375.5 746.7 376.2 748.1C375.5 754.3 378.3 768.2 374.4 771.8C372.4 772.2 372.6 772.1 370.7 771.4C371.6 763.8 369.8 754.7 371.2 747.2C371.5 745.8 372.5 745.7 373.8 745.1Z" fill="black"/><path d="M846.7 1072C847.1 1067.1 849 1050 851.5 1046.9L852.6 1046.8C856.4 1051.2 853.6 1069.7 849.8 1073.3L846.7 1072Z" fill="black"/><path d="M834.4 1006.7C833.6 1004 832.9 1002.3 833.4 999.6L834.3 998.3C839 998 839.5 1003.9 840.3 1007.4C841.1 1011.1 843.1 1019.9 839.1 1022L837.8 1021.1C835 1016.3 835 1012.2 834.4 1006.7Z" fill="black"/><path d="M431.4 867.7C433.6 869.3 434.1 869.6 434.9 872.1C435.1 876.2 438.1 893.9 434.6 895.7C429.9 893.1 428.7 872.6 431.4 867.7Z" fill="black"/><path d="M639.9 989.7C641.9 988.8 640.9 988.8 642.9 989.5C645.8 992.3 646.3 997.4 647.1 1001.5C648 1006.4 649.1 1010 647.7 1014.7L646.7 1014.9C642.6 1010.7 640.1 995.6 639.9 989.7Z" fill="black"/><path d="M957.2 856.7C956.8 854.9 956.4 853.1 956.1 851.3C955.6 848.6 955.6 845.3 957.2 843.1L958.4 843.2C960 844.7 960.2 845.9 961 848C961.5 852.4 964.8 864.5 961.6 867.7C959.7 867.6 960.7 867.9 958.9 866.4C957.6 863.5 957.6 859.9 957.2 856.7Z" fill="black"/><path d="M621.7 965.8C623.8 967.7 624.9 968.5 626.5 970.8C625.9 972 626.5 971 625.5 972.3C623.3 975 625.7 983.5 624.3 986.8L623.1 987.1C617.6 983.2 619.7 971.3 621.7 965.8Z" fill="black"/><path d="M973.3 806.1C974.9 803.5 975.3 803.3 978.2 802.7C980 806.1 979.7 810.9 977 813.7C976.1 813.7 975.4 813.9 974.7 813.6C973 811.3 973.5 808.9 973.3 806.1Z" fill="#5C5C5C"/><path d="M846.7 1072L849.8 1073.3C848 1075.7 848 1079.2 847.7 1082.1C845.9 1079.7 845.6 1078.6 842.7 1079.4C843.1 1076.8 846.2 1076.4 846.7 1072Z" fill="#7D7D7D"/><path d="M526 988.1C530.6 991.4 528.7 994.5 529.4 999.3C530.6 1007.6 531.5 1015.9 533.8 1023.9C535.2 1028.7 537.5 1033.4 538.7 1038C537.3 1040 538.3 1039.2 535.4 1040C528.8 1032.6 526.6 1017.4 524.8 1007.6C519.5 1003 521.2 992.8 526 988.1Z" fill="black"/><path d="M624.1 1020.8C628.1 1022 627.8 1023.9 628.1 1027.7C629 1039.8 633.4 1050.3 639.1 1060.9C639.8 1062.3 638.7 1063.6 638.1 1065C637.3 1064.9 636.1 1064.6 635.4 1064.5C627.8 1059.2 619.7 1029.9 624.1 1020.8Z" fill="black"/><path d="M930 863C931.6 863.2 934 863.6 934.4 865.5C937.1 876.6 939.3 887.9 941.2 899.1C941.8 902.6 941.7 904.3 940.2 907.4L939.1 907.3C936.7 905.4 934.5 892.4 933.9 889.1C932.8 882.1 927.1 869.1 930 863Z" fill="black"/><path d="M422.5 906.9C424.2 907.1 424.1 907.1 425.7 907.9C428.3 911.9 427.6 923.1 428.8 928.3C430 933.7 431.8 939.1 433.2 944.5C433.9 947 433.5 947.2 432.4 949.2C424.2 947.7 420 913.1 422.5 906.9Z" fill="black"/><path d="M790.3 1044.5C792.3 1044.3 792.2 1044.3 794.1 1044.8C796.4 1047.3 797.2 1052 797.4 1055.3L794.3 1056.3C791.9 1059.6 791.7 1071.4 790.4 1077.2C789.2 1078.4 789.3 1078.3 787.6 1078.6C784.3 1076.5 788.5 1047.6 790.3 1044.5Z" fill="black"/><path d="M468.8 963.4C470 963.7 471.8 963.9 472.2 965.3C473.1 970.2 474.6 975.6 475.4 980.4C476.3 986.1 481.4 994.8 479.7 999.7C471.5 997.4 466.1 969.4 468.8 963.4Z" fill="black"/><path d="M653.9 1073.7C658.6 1076.1 659.4 1083.7 662.1 1088.4C664.4 1092.5 666.5 1096.8 669.1 1100.8C669.8 1101.9 668.4 1103.8 667.8 1104.8C660.4 1102.4 653.9 1086.3 652.3 1079.1C651.7 1076.5 652.5 1075.6 653.9 1073.7Z" fill="black"/><path d="M578.4 1049C579 1049.1 580.2 1049.3 580.7 1049.6C582.7 1050.7 587.2 1065.3 588.7 1068.4C590.2 1071.6 592.9 1075.1 593.8 1078.5C594.1 1079.5 593.2 1080.5 592.8 1081.4C584.5 1079.4 575.9 1056 578.4 1049Z" fill="black"/><path d="M732.7 1074.8C734.2 1075.1 734.2 1075.1 735.6 1075.6C736.4 1076.4 737 1077.2 737.6 1078.7C740 1085.6 744.5 1093.4 746 1100.5C745.7 1101.2 745.4 1102 745.1 1102.8C738.2 1102.5 735.6 1089.4 733.2 1084.1C731.8 1080.9 731.3 1078.1 732.7 1074.8Z" fill="black"/><path d="M900.1 971.3C903.2 972.4 904.1 974.7 904.2 977.9C904.6 984.7 905.6 998.1 901.4 1003.7C899 1002.4 899.7 1003.3 898.5 1001.2C898.8 996.4 899 991.6 899.1 986.7C899.3 981.1 897.2 976 900.1 971.3Z" fill="black"/><path d="M605 948.7C607.4 949.9 607.2 949.3 608.3 951.3C607.8 955.8 607.5 960.6 607.1 965C606.7 969.7 608 978.4 606.8 981.6L604.3 980.7C600.1 976.1 601.4 953.9 605 948.7Z" fill="black"/><path d="M693.5 1055.2C694.3 1055.5 695.9 1055.9 696.4 1057.1C699.4 1064.4 702.6 1072.5 705 1080C704.8 1080.8 704.7 1081.6 704.5 1082.3C703.7 1082.3 702.5 1082 701.7 1081.9C696.7 1078.1 690.6 1061.2 693.5 1055.2Z" fill="black"/><path d="M596.7 1003.8C598.6 1004.2 598.4 1004.2 599.8 1005.6C601.3 1010 604 1023.6 605.3 1028.9C604.9 1029.7 604.6 1030.4 604.3 1031.2C600.9 1031.3 599.8 1029.5 598.9 1026.4C597.3 1020.6 594.1 1009.1 596.7 1003.8Z" fill="black"/><path d="M936.8 933.4C938.4 934.3 939.4 935.2 939.5 937.1C939.9 944.3 939.4 958 935.4 963.9C934.5 963.6 933.9 963.3 932.9 962.9C932.1 960.9 935.3 939.7 935.2 936.1C935.2 935.4 936.3 933.9 936.8 933.4Z" fill="black"/><path d="M381.3 798.7C382.6 799.6 384.1 800.7 384.1 802.4C384.3 807.8 387.6 823.1 384.9 827.2C383.3 826.6 381.9 825.9 381.5 824.2C379.9 817.4 378.2 804.8 381.3 798.7Z" fill="black"/><path d="M506.2 968.8C507.8 969.4 509.4 970.3 509.7 972.1C510.5 977.4 514.5 990.8 512.2 995.3C510.1 994.4 509.2 994 508.3 991.7C506.2 986.1 504 974.2 506.2 968.8Z" fill="black"/><path d="M869.4 1006.4L871.5 1007.6C872.9 1009.9 873.2 1016.4 873 1019.1C872.6 1024 873.2 1027.7 869.7 1031.3C864.5 1029.2 867.5 1023 867.4 1017.9C867.3 1014.3 867.2 1009 869.4 1006.4Z" fill="black"/><path d="M663.4 1038.2L665.6 1038.5C665.9 1038.8 666.6 1039.3 666.7 1039.8C668 1045.1 672.5 1054.7 671 1059.6L668.7 1059.3C664.1 1056 660.8 1043.5 663.4 1038.2Z" fill="black"/><path d="M483.4 955.4C480.9 952.9 477 947.5 480 944.4C482.1 944.3 483.2 945.1 485.1 946.1C486.6 949.2 488.9 953 488.2 956.5L487.1 957.1C485.6 956.6 484.7 956.4 483.4 955.4Z" fill="black"/><path d="M485.1 946.1C486.6 949.2 488.9 953 488.2 956.5L487.1 957.1C485.6 956.6 484.7 956.4 483.4 955.4C484.6 952.5 484.7 949.2 485.1 946.1Z" fill="#373737"/><path d="M633.4 993.4C636.4 995.9 636.9 1009.7 634.7 1013C630.1 1009.3 629.8 998.2 633.4 993.4Z" fill="black"/><path d="M967 834.9C966.8 831.6 966.2 828.7 967.3 825.6C969.1 823.7 968 824.3 970.4 823.7C971 828.8 970.3 830.9 967 834.9Z" fill="black"/><path d="M840.8 764.6C841.2 762.8 841.4 760.3 843.1 759.3C848.6 755.9 860.7 762.3 865.1 765.7C867.8 764.9 873 764 874.4 762.4C874.6 759.8 874.1 760.9 875.5 759C878.7 758.4 881.5 761.8 883.7 764C895.7 764.8 899.3 769.2 907.4 777.7C908.2 778.6 907.9 778.5 909 779.1C912.7 779.4 913.4 780.3 916 783.3C920.3 788.4 928.4 800.7 927.9 807.2C926.7 809.3 927.2 808.6 924.8 809.9L924.3 810.6C925.3 817.7 926.4 834 923.8 841.6C923.6 842.3 922.4 842.4 921.6 842.7C913.8 841.3 907.2 819.7 901.9 817.9C900.2 819 898.2 820.2 896.3 820.9L894.3 821C890.3 819 888.6 814.7 886.5 810.8C881.4 809 876 807.1 871.4 804.5C868.2 802.6 865.9 800.7 862.5 799L861.4 801.2C860.1 802.7 860.9 802.1 858.8 802.7C856.4 802 857.3 802.7 855.9 800.9C853.7 799.7 850.9 798.4 848.6 797.2C846.2 797.8 841 798.7 839.5 800.2C836.6 803.5 833.6 800.4 830.8 798.3C826.9 797.1 822.9 796 818.9 795C817.2 797.8 816.1 800.3 813.1 801.7C814 804.4 814 803.1 813.6 805.7C810.5 807.9 807.9 805.8 805.6 803.6C798.4 804.9 793.3 805.4 785.9 805.1L784.9 805.9C783.5 808.6 783.3 809 780.8 810.8C777.3 810.2 769.1 816.6 765.5 816.7C759.1 816.9 752.3 816.4 745.9 816.3C744.9 818.3 744.7 819.5 742.8 820.5C740.7 820.7 740.8 820.7 738.8 820.1C735.7 818.9 733.5 818.6 730.3 818C723.1 824.9 721 827.6 711.1 829.4C710.1 832 710.6 831.8 708.8 833.4C706.8 833.6 707 833.6 705.2 832.8L704.8 829.6C701 827.5 691.5 838.2 685.2 840.6C683.5 843.5 682.7 844.5 679 844.2C676.2 843.6 673.9 843.4 671.6 841.7C661.9 849 654.5 862.3 647.2 865.1C646.7 867.4 646.8 867.8 645 869.4C642.5 869.8 642 869.1 640.6 867C631.7 873.3 633.3 889.7 621.4 890.6C621.5 894.4 622.1 899 619.8 902C618.2 902.8 617.9 903.2 616.1 902.2C614.8 901.8 614.8 901.8 613.4 901.8C608.8 906.2 610.8 921.8 602.8 919.7C596.9 918.1 599.1 906.2 596.8 901.3L595.6 900.9L593.7 902C592.7 901.7 592.2 901.4 591.2 900.9C589.9 899.1 590.2 897.7 590.2 895.4C587.9 888.4 592.6 858.3 599.7 855.4C602.2 855.8 601 855.3 603.1 857.1L603.3 857.3C607.2 855.7 610.5 833.7 627.4 833.4C628.2 830.7 630.8 822.8 634.6 824.6C635.5 826.2 635.2 827.1 635.1 828.9C637.2 827.9 639.5 825.8 641.9 825C643.2 824.5 647.2 825.3 647.6 824.9C655.2 818.6 654.9 812.6 664.7 808.7C666.1 805.3 667.1 801.2 670.2 799.5C672.7 799.5 671.8 799.4 674.2 801.1C676.2 801.7 679.3 798.2 681.4 797.8C683 797.5 686.6 797.7 688.3 797.7C690.8 794.9 694 792.2 696.8 789.7C698.2 787.8 699 787.5 700.9 786.2C703.6 785 706.2 783.9 708.9 782.7C711.6 782.9 713.8 783.3 716.5 783.8C720.8 779.7 722.8 778.4 728 775.9C747.7 780.9 765.3 777.1 779.4 762.2C785.7 764.5 793.4 760.2 799.4 759.4C804.5 758.7 810.2 761.3 815.9 761.3C817.2 758.5 817.7 758.8 820.4 758.3C828.7 759.7 833.6 763 840.8 764.6Z" fill="#8B8A8A"/><path d="M590.2 895.4C587.9 888.4 592.6 858.3 599.7 855.4C602.2 855.8 601 855.3 603.1 857.1C600.7 866.1 596.7 872.5 597 882.8C597.1 886.6 596.1 891.9 594.6 895.4L590.2 895.4Z" fill="black"/><path d="M909 779.1C912.7 779.4 913.4 780.3 916 783.3C920.3 788.4 928.4 800.7 927.9 807.2C926.7 809.3 927.2 808.6 924.8 809.9C921.9 804.6 917.9 798.6 915.1 793C913.5 789.7 909.9 786.3 907.9 783.2C907.2 782 908.5 780.2 909 779.1Z" fill="black"/><path d="M780.8 810.8C775.3 806.8 766.2 788.9 766.9 782.8C768.3 780.6 767.7 780.8 769.7 780.2C773.4 781.9 775.8 794.5 778 797.7C780.3 801.1 782.5 801.6 784.9 805.9C783.5 808.6 783.3 809 780.8 810.8Z" fill="black"/><path d="M640.6 867C642.9 859.6 642.3 843.4 648.2 836.9C650.3 836 649.3 836 651.3 836.7C651.9 837.7 652 838.7 651.7 839.9C649.3 849.6 647.8 855.1 647.2 865.1C646.7 867.4 646.8 867.8 645 869.4C642.5 869.8 642 869.1 640.6 867Z" fill="black"/><path d="M705.2 832.8C705.5 826.7 709.4 803.6 714 800L714.8 800.4C717 805.6 712.5 822.9 711.1 829.4C710.1 832 710.6 831.8 708.8 833.4C706.8 833.6 707 833.6 705.2 832.8Z" fill="black"/><path d="M664.7 808.7C666.1 805.3 667.1 801.2 670.2 799.5C672.7 799.5 671.8 799.4 674.2 801.1C669.7 808.5 666.3 827.9 662.9 831.5L661.9 831.6C658.3 827.4 663.2 813.8 664.7 808.7Z" fill="black"/><path d="M805.6 803.6C802.9 797.5 796.4 790.3 793.9 784.4C794.9 782.6 794.2 783.4 796.4 782.3C801.4 783.4 809.1 797.3 813.1 801.7C814 804.4 814 803.1 813.6 805.7C810.5 807.9 807.9 805.8 805.6 803.6Z" fill="black"/><path d="M855.9 800.9C853.4 790 849.3 786.1 847.1 778.5C848.2 776.7 847.5 777.3 849.4 776.7C856.1 779 862.1 794.2 861.4 801.2C860.1 802.7 860.9 802.1 858.8 802.7C856.4 802 857.3 802.7 855.9 800.9Z" fill="black"/><path d="M886.5 810.8C884.4 806.4 878.5 798.2 879.3 795.1L880.6 794C886.2 794.6 896.8 815.9 896.3 820.9L894.3 821C890.3 819 888.6 814.7 886.5 810.8Z" fill="black"/><path d="M738.8 820.1C740.9 812.4 743.6 805.2 742.5 797.5C742.2 795.2 742 792.5 743.5 790.8C745.5 790.2 745.3 790.1 747.2 790.8C749.5 795.8 747.3 810.8 745.9 816.3C744.9 818.3 744.7 819.5 742.8 820.5C740.7 820.7 740.8 820.7 738.8 820.1Z" fill="black"/><path d="M815.9 761.3C817.2 758.5 817.7 758.8 820.4 758.3C824.5 762.2 837.9 775.6 835.1 781.9C830.8 782.6 826.2 772.7 824.6 769.4C819.9 766.5 819 766.1 815.9 761.3Z" fill="black"/><path d="M874.4 762.4C874.6 759.8 874.2 760.9 875.5 759C878.7 758.4 881.5 761.8 883.7 764C886.7 768.1 894.9 776 894.1 780.7L892.5 781.7C892.1 781.6 891.6 781.6 891.1 781.5C886.1 776.2 879.3 767.5 874.4 762.4Z" fill="black"/><path d="M616.1 902.2C614.7 897.1 614.8 880 619 876.4C621.2 876.3 620.1 876.1 622.1 877.5C622.4 878.3 621.5 888.4 621.4 890.6C621.5 894.4 622.1 899 619.8 902C618.2 902.8 617.9 903.2 616.1 902.2Z" fill="black"/><path d="M679 844.2C679.6 839.6 683 818.8 688.1 817.9L689.2 818.8C690.2 828.6 687 829.9 685.4 839.6L685.2 840.6C683.5 843.5 682.7 844.5 679 844.2Z" fill="black"/><path d="M627.4 833.4C628.2 830.7 630.8 822.8 634.6 824.6C635.5 826.2 635.2 827.1 635.1 828.9C630.9 833.7 629.9 848.5 625.7 851.6L624.4 851.4C621.9 847.8 625.5 837.2 627.4 833.4Z" fill="black"/><path d="M830.8 798.3C829.5 796.1 828.3 794.8 828.1 792.3L828.6 790.9C832.5 790.2 839.1 797 839.5 800.2C836.6 803.5 833.6 800.4 830.8 798.3Z" fill="black"/><path d="M696.8 789.7C698.2 787.8 699 787.5 700.9 786.2C701.5 790.5 700.1 799.5 695.7 801.4C692.7 798.6 695.9 793.1 696.8 789.7Z" fill="black"/><path d="M590.2 895.4L594.6 895.4C594.6 897.7 594.8 900.1 593.7 902C592.7 901.7 592.2 901.4 591.2 900.9C589.9 899.1 590.2 897.7 590.2 895.4Z" fill="#5C5C5C"/><path d="M912.3 812.2C917.8 814.5 923.3 828.7 924 834.6C924.3 836.7 923.4 837.3 922.2 838.7C918.5 836.8 913.6 820.7 911.1 816.5C910.2 815 911.4 813.5 912.3 812.2Z" fill="black"/><path d="M636.7 506.6C652.4 505 649.6 514.1 651.9 526.7C655.6 547 646.6 545.7 630.7 548.6C621.4 550.3 612.2 552.1 603 553.9L554.5 563.8C541.1 566.5 526.7 569.3 513.7 573.6C496.2 579.3 480.7 587.5 464.5 595.9C461.3 597.7 456.6 600.9 453 598.8C451.7 598 450.8 596.8 450.5 595.3C447.7 582.5 486.3 540.1 499.6 535.2C519.1 527.9 542.3 523.7 563.1 519.8C587 515.4 612.6 509.7 636.7 506.6Z" fill="black"/><path d="M636.8 513.9C638.8 513.6 640.1 513.2 641.7 514.1C645.6 518.8 644.7 532 644.7 538.4C616.2 544.2 587.2 548.8 558.6 555.1C543.2 558.6 526 561.6 511.1 566.6C496.1 571.6 480.1 579.4 466.1 586.5L458.4 590.6C467.4 574.3 484.9 551.9 501.2 543C514.5 535.8 542.4 531.5 557.6 528.4C583.9 522.9 610.3 518.1 636.8 513.9Z" fill="#373737"/><path d="M848.7 460.6C867 458.9 891.8 478.1 903.5 490.9C905.6 493.3 904.5 498.3 901.3 499.1C897.4 500.1 892.1 498.9 888.1 498.8C866.2 495.7 847.6 500.2 827.1 507.8C815.4 512.2 803 516.6 790.9 521C782.2 524.1 773.7 527.9 765 531C761.3 532.3 756.5 533.7 752.8 531.6C748.7 529.1 745.7 517.6 744.4 513.1C743.8 510.5 743.2 506.3 744.9 504C750.1 497.1 836.5 462.7 848.7 460.6Z" fill="black"/><path d="M850.9 467.3C863.9 465.9 885.8 483.7 895 491.9C880.7 491 863.9 490 850 493.3C828.1 498.6 806.2 507.6 785.2 515.5C775.7 519.2 766.1 522.8 756.6 526.3C753.2 519.4 752 515.3 750.1 507.8C756.9 503.8 766 500.3 773.4 497C787.6 490.6 802 484.6 816.5 479C826.5 475 840.6 469 850.9 467.3Z" fill="#373737"/><path d="M731.3 910.1C729.7 909.2 730.2 909.5 729 908.2C728.2 903 733.2 902.3 737.3 901.6C763.6 896.9 790 889.4 815 880C819 878.5 826.5 873.6 829.7 878.1C830.1 880.5 829.9 880.5 828.9 882.7C833.1 894.3 831.8 904.9 821.8 913.1C821.8 917.3 822.5 924.1 817.8 926.3L816.8 926.1C815.5 923.9 815.7 923.7 816.3 920.7C813.3 923.4 811.3 925.4 807.7 927.3C805.7 935.2 806 943.6 797.4 946.9C797.2 950.9 797.5 952.3 794.5 955L793.2 955.1C791.5 953.5 791.7 952.9 791.4 950.5C782.2 952.7 781.4 948.5 777.4 941.2C773.7 941.4 769.9 940.3 768.1 940.7C766.8 942.2 767.4 944 767.4 946.7C767.1 949.7 767.6 948.4 766 950.7C762.3 952.1 761.1 950.1 759.5 947C753.2 941 755 936.9 745.1 932.9C743.4 934.2 743.3 934.4 741.2 935.3C731.3 934.7 732.4 917.3 732.6 910.8L731.3 910.1Z" fill="#8B8A8A"/><path d="M731.3 910.1C729.7 909.2 730.2 909.5 729 908.2C728.2 903 733.2 902.3 737.3 901.6C763.6 896.9 790 889.4 815 880C819 878.5 826.5 873.6 829.7 878.1C830.1 880.5 829.9 880.5 828.9 882.7C808.3 891.3 752.5 910.3 731.3 910.1Z" fill="black"/><path d="M786.6 936.2C786.6 937.7 786.6 937.2 785.9 938.7C779.6 939.6 776.4 918.1 778.4 913.8C780.2 912.7 779.3 912.9 781.3 913.2C783 914.9 783 916 783.6 918.2C786.8 918.5 788.5 918.4 790.9 920.4C789.5 926.3 791 927.3 791 931.8L789.7 931.6C787.7 933.3 787.7 933.8 786.6 936.2Z" fill="black"/><path d="M783.6 918.2C786.8 918.5 788.5 918.4 790.9 920.4C789.5 926.3 791 927.3 791 931.8L789.7 931.6C787.7 933.3 787.7 933.8 786.6 936.2C784.9 929.8 784.2 924.8 783.6 918.2Z" fill="#5C5C5C"/><path d="M790.9 920.4C793.8 920.4 793 920 795 921.4C797.9 927.7 797.4 939.6 797.4 946.9C797.2 950.9 797.5 952.3 794.5 955L793.2 955.1C791.5 953.5 791.7 952.9 791.4 950.5C792.2 946.1 791.5 936.3 791 931.8C791 927.3 789.5 926.3 790.9 920.4Z" fill="black"/><path d="M759.5 947C758.1 941.6 752.3 926 756.8 922.4C761.3 923.6 763.7 940.9 767.4 946.7C767.1 949.7 767.6 948.4 766 950.7C762.3 952.1 761.1 950.1 759.5 947Z" fill="black"/><path d="M816.3 920.7C817.2 915.3 815.1 905 817.9 901.6C822.3 901.6 821.6 909.8 821.8 913.1C821.8 917.3 822.5 924.1 817.8 926.3L816.8 926.1C815.5 923.9 815.7 923.7 816.3 920.7Z" fill="black"/><path d="M704.6 763.4C701.6 764.2 700.5 764.5 697.8 766.1C690.8 770.4 684.9 774.2 676.3 774C647.8 773.4 642.2 733.6 658.9 716C661.8 713 666.5 708.7 671.1 711C674.1 716.5 662 725.4 660.2 732.8C654.9 754.9 672.9 774.4 692.8 756.6C693.5 755.9 693.2 752 695.4 749.6C701.8 746.2 708.4 752.4 713.4 756C722.7 762.6 732.3 767.8 744 767.7C759.9 767.7 774.1 757.7 779.5 742.7C781.3 737.6 783.1 726 790 726.4C791.9 727.4 792.5 729.7 793.9 731.9C796.1 732.8 798 733.5 800.5 733.2C804.5 732.7 808 729.9 810.2 726.7C812.6 723.2 813.2 719.4 813.2 715.3C813 694.9 793.3 692.6 792.4 685C792.2 684 792.3 684.2 792.9 683.4C794.4 682.6 796 682.3 797.5 682.5C820.7 685.3 832 722.9 813.7 737.8C806.3 743.8 798.9 743.3 790.7 742.5C787.4 751.4 785.7 755.1 779.4 762.2C765.3 777.1 747.7 780.9 728 775.9C719.1 773.1 712.2 768.5 704.6 763.4Z" fill="black"/><path d="M873 818C873.6 818 874.9 818 875.4 818.3C883.9 823.6 875.7 828 872.1 829.8C853.3 839.5 832.5 837.5 812.5 842.5C800.5 845.4 790.2 850.8 778.6 854.5C766.2 857.7 752.8 858.5 740.9 863.3C712.2 874.7 688.2 885.3 657.1 889.7C648.5 889.3 649.7 880.7 655.1 879.9C685.8 875.4 712.5 861.7 741.4 851.4C750.5 846.9 766.7 847.6 775.3 844C799.4 834.1 820.6 827.8 846.9 826.2C854.4 825.8 865.8 821.2 873 818Z" fill="black"/><path d="M610.7 572.8C615.5 572.4 621.2 571.8 623.8 576.5C623.8 577.4 623.9 577.9 623.4 578.7C620.2 582.7 594.9 584 588.3 585.1C597.9 595.6 599.4 609.4 586.6 618.2C581.7 621.6 575.5 622.9 569.5 621.6C554.5 618.5 552.3 606.4 555.3 593.4C544.3 596.6 533.5 600.4 523 605C513.2 609.6 503.7 614.2 494.2 619.3C492.2 620.4 488.4 621 487.2 618.4C488.2 609.9 502.6 603.9 509.6 600.6C541.3 585.6 575.7 575 610.7 572.8Z" fill="black"/><path d="M573.6 590.2C579.5 589.6 584.9 593.9 585.6 599.8C586.4 605.7 582.4 611.1 576.5 612.1C572.5 612.7 568.5 611.1 566 608C563.6 604.8 563 600.6 564.6 596.9C566.2 593.2 569.6 590.6 573.6 590.2Z" fill="#E0E0DF"/><path d="M573.1 597.3C575.2 596.4 577.7 597.5 578.7 599.6C579.6 601.8 578.6 604.3 576.4 605.3C575 605.9 573.3 605.7 572.1 604.8C570.9 603.8 570.2 602.3 570.4 600.8C570.6 599.2 571.6 597.9 573.1 597.3Z" fill="black"/><path d="M854.4 525C862 524.2 889.1 525 893.4 532.4C893.4 534.2 891.6 537.4 890.3 537.3C879 536.1 869.9 534.4 858.3 534.6C861.7 538.7 863.9 542.8 864.1 548.3C864.3 553.5 862.2 558.6 858.5 562.2C854.6 566.1 849.3 568.2 843.8 568.2C830.7 568.1 824.5 558.6 824.7 546.4C825.4 543.2 826.2 541.4 827.3 538.3C815.5 540.8 803.9 544.3 792.7 548.6C788.9 550.1 778.5 555 775.3 554.6C773.3 553.4 774 554.2 773 552C773.1 546.1 778.9 544.5 783.6 542.3C805.8 532.3 830.1 526.6 854.4 525Z" fill="black"/><path d="M842.1 538.2C847.4 537.1 852.7 540.4 853.9 545.8C855.1 551.1 851.8 556.4 846.5 557.6C843 558.5 839.3 557.3 836.9 554.7C834.4 552.1 833.6 548.4 834.7 544.9C835.8 541.5 838.6 539 842.1 538.2Z" fill="#E0E0DF"/><path d="M842.6 544.7C844.4 543.7 846.8 544.4 847.9 546.2C848.9 548.1 848.3 550.4 846.5 551.6C845.3 552.3 843.7 552.4 842.4 551.7C841.2 550.9 840.4 549.6 840.4 548.1C840.5 546.7 841.3 545.4 842.6 544.7Z" fill="black"/><path d="M724.7 529.3C726.6 529.4 726.7 529.4 728.5 529.9C732.1 532.8 732.6 546.3 734.3 551.9L760.5 643.5C764.6 657.9 769.5 673.1 772.8 687.8C773.3 690.2 772.3 691.5 770.8 693.4C768.3 693.2 765.9 692.9 764.9 690C763.1 685.1 761.7 680 760.2 675.1L751.6 646L733.4 582.8C729.9 570.8 718.9 539.9 724.7 529.3Z" fill="black"/><path d="M676 578.3C677.2 578.6 678.9 579.1 679.8 580C681.9 581.9 703.5 698.1 702.9 705C702.7 706.9 701.1 708.1 699.8 709.3C698.3 709.1 696.3 708.6 695.4 707.3C693.9 705.2 672.8 589.4 672.9 583.5C673 581.1 674.4 579.9 676 578.3Z" fill="black"/><path d="M500.3 636.2C501 636.1 502.1 636.2 503 636.2C505.3 637.7 504.7 636.7 505.4 639C504.9 640.3 504.7 640.9 503.3 641.6C489.5 648.2 478.4 655.8 466.3 665.2C463.6 665.7 464.8 665.9 462.6 665C461.3 662.9 461.5 664 461.7 661.6C469.3 650.1 487.8 641 500.3 636.2Z" fill="black"/><path d="M716.3 472.9C716.9 473 718.5 473.2 718.8 473.6C724.1 479.1 727.7 503.8 724.3 509.1C722.5 508.9 720.2 508.3 719.9 506.1C718.7 496.2 716.6 486.5 715 476.6C714.9 475.5 715.8 473.9 716.3 472.9Z" fill="black"/><path d="M896.5 563.3C903.4 564 924.2 568 926.2 575.2C925.5 577.8 926.1 576.6 924 578.7C914.9 575.4 906.4 571.4 896.7 569.3C894.9 568.8 894.9 568.3 894.3 566.8C894.6 564.8 895 564.7 896.5 563.3Z" fill="black"/></svg>
